<svg width="75" height="75" viewBox="0 0 75 75" fill="none" xmlns="http://www.w3.org/2000/svg">
<g clip-path="url(#clip0_87_618)">
<rect width="75" height="75" rx="37.5" fill="white"/>
<circle cx="37.5" cy="37.5" r="37.5" fill="#DEF4FF"/>
<path d="M30.1878 10.0503C30.1878 10.0503 21.1353 12.0078 21.7953 23.8953C22.4553 35.7828 20.3328 39.1353 20.3328 39.1353L22.6578 38.4903L30.1803 43.6428L50.4603 39.5853L53.6403 40.5303L54.6228 38.3103C54.6228 38.3103 55.7403 39.5103 56.8503 39.5778C56.8503 39.5778 55.8153 34.2378 56.0103 31.8528C56.4228 26.8578 54.0228 19.5903 54.0228 19.5903L30.1728 10.0503H30.1878Z" fill="#441D39"/>
<path d="M67.3429 65.8504C62.2279 64.1329 50.8204 58.3879 46.9429 56.4079C46.6429 56.2579 46.3954 56.1229 46.1929 56.0254C45.8329 55.8379 45.6229 55.7329 45.6229 55.7329H30.1954C30.1954 55.7329 29.9929 55.8379 29.6254 56.0254C29.4229 56.1304 29.1679 56.2579 28.8754 56.4079C28.3054 56.7004 27.5779 57.0679 26.7304 57.4954C21.7879 59.9854 12.8404 64.3879 8.47538 65.8504C2.26538 67.9429 2.26538 78.5479 2.26538 78.5479H73.5529C73.5529 78.5479 73.5529 67.9429 67.3429 65.8504V65.8504Z" fill="#FDEBD9"/>
<path d="M44.655 48.3896H31.065L30.1875 55.7247C30.1875 57.1647 33.645 58.3346 37.905 58.3346C42.165 58.3346 45.6225 57.1647 45.6225 55.7247L44.6625 48.3896H44.655Z" fill="#C1735C"/>
<path d="M25.1322 22.9496C25.1322 22.9496 25.6272 18.9146 29.0472 18.1646C29.0472 18.1646 53.0997 18.1646 48.2772 18.1646C48.2772 18.1646 51.4047 18.1646 52.0572 22.6646C52.1547 23.3396 53.1522 30.2621 53.0922 32.9846C53.0547 34.7321 53.7372 33.8096 53.7372 33.8096C53.7372 33.8096 54.4722 31.0196 54.5922 27.3596C54.8172 20.3846 53.9097 8.39209 39.2022 8.39209C24.4947 8.39209 23.1372 17.2196 23.1372 28.6046L23.6772 34.2071C23.6997 34.4321 23.8872 34.5971 24.1122 34.5971C24.5397 34.5971 25.1247 22.9496 25.1247 22.9496H25.1322Z" fill="#C1735C"/>
<path d="M51.5475 21.4945C51.8333 21.4945 52.065 21.2628 52.065 20.977C52.065 20.6912 51.8333 20.4595 51.5475 20.4595C51.2617 20.4595 51.03 20.6912 51.03 20.977C51.03 21.2628 51.2617 21.4945 51.5475 21.4945Z" fill="#FF9988"/>
<path d="M30.4797 53.2945C30.4797 53.2945 41.0172 54.262 44.7297 49.642V44.332L31.3722 45.6145L30.4797 53.2945V53.2945Z" fill="#A5503C"/>
<path fill-rule="evenodd" clip-rule="evenodd" d="M39.0134 50.5199C46.1454 50.5199 52.1438 44.3243 53.8855 35.9196C54.2098 35.8316 54.3578 35.7594 54.3578 35.7594C55.9328 34.9207 56.7803 32.9811 56.5403 30.4575C56.3747 28.7159 55.0589 28.3296 54.2593 28.2574C53.2533 18.6557 46.8109 11.25 39.0134 11.25C31.055 11.25 24.5082 18.9643 23.7121 28.8543C23.3345 28.8475 21.0882 28.9051 21.0058 31.23C20.9158 33.7686 21.8833 35.6482 23.5033 36.3896C23.5033 36.3896 23.7467 36.49 24.2868 36.5753C26.1979 44.6446 32.0681 50.5199 39.0134 50.5199Z" fill="#C1735C"/>
<path d="M45.7947 32.4293C46.2959 32.4293 46.7022 31.7241 46.7022 30.8543C46.7022 29.9844 46.2959 29.2793 45.7947 29.2793C45.2935 29.2793 44.8872 29.9844 44.8872 30.8543C44.8872 31.7241 45.2935 32.4293 45.7947 32.4293Z" fill="#441D39"/>
<path d="M32.1826 32.107C32.6838 32.107 33.0901 31.4019 33.0901 30.532C33.0901 29.6622 32.6838 28.957 32.1826 28.957C31.6815 28.957 31.2751 29.6622 31.2751 30.532C31.2751 31.4019 31.6815 32.107 32.1826 32.107Z" fill="#441D39"/>
<path d="M39.5926 37.9345H38.1601C37.5226 37.9345 36.9601 37.687 36.6601 37.282C36.4426 36.9895 36.3826 36.6445 36.4876 36.307C36.8101 35.257 37.2526 32.407 37.2601 32.377C37.2901 32.1745 37.4851 32.0395 37.6876 32.062C37.8901 32.092 38.0326 32.287 38.0026 32.4895C37.9876 32.6095 37.5451 35.4295 37.2076 36.5245C37.1776 36.6295 37.1926 36.7345 37.2676 36.8395C37.4251 37.057 37.7776 37.192 38.1676 37.192H39.6001C39.8101 37.192 39.9751 37.357 39.9751 37.567C39.9751 37.777 39.8101 37.942 39.6001 37.942L39.5926 37.9345Z" fill="#A5503C"/>
<path d="M46.5972 34.8973C48.0428 34.8973 49.2147 34.6286 49.2147 34.2973C49.2147 33.9659 48.0428 33.6973 46.5972 33.6973C45.1516 33.6973 43.9797 33.9659 43.9797 34.2973C43.9797 34.6286 45.1516 34.8973 46.5972 34.8973Z" fill="#AF5D4E"/>
<path d="M31.3204 34.8973C32.766 34.8973 33.9379 34.6286 33.9379 34.2973C33.9379 33.9659 32.766 33.6973 31.3204 33.6973C29.8748 33.6973 28.7029 33.9659 28.7029 34.2973C28.7029 34.6286 29.8748 34.8973 31.3204 34.8973Z" fill="#AF5D4E"/>
<path d="M49.0203 27.0227C46.4853 26.4452 44.6028 27.0227 43.4553 27.2477C42.9678 27.3452 42.8178 26.7377 42.8178 26.7377C42.6978 26.3327 43.2303 26.0102 43.6203 25.9202C44.9178 25.5977 46.5828 25.3727 49.1178 26.0852C49.6053 26.2202 49.6578 26.6252 49.6578 26.6252C49.6278 27.0752 49.3503 27.1052 49.0203 27.0227V27.0227Z" fill="#441D39"/>
<path d="M28.8002 26.9169C31.3577 26.4369 33.2177 27.0969 34.3577 27.3594C34.8452 27.4719 35.0102 26.8794 35.0102 26.8794C35.1452 26.4819 34.6277 26.1369 34.2452 26.0244C32.9627 25.6569 31.3052 25.3644 28.7402 25.9719C28.2452 26.0919 28.1777 26.4894 28.1777 26.4894C28.1852 26.9394 28.4627 26.9769 28.8002 26.9169V26.9169Z" fill="#441D39"/>
<path d="M38.4527 43.6345C36.6752 43.6345 35.2727 43.2595 35.1752 43.237C34.9727 43.1845 34.8603 42.9745 34.9128 42.7795C34.9653 42.577 35.1753 42.4645 35.3703 42.517C35.4078 42.5245 38.8578 43.4395 41.6403 42.352C41.8353 42.277 42.0527 42.3745 42.1277 42.562C42.2027 42.757 42.1052 42.9745 41.9177 43.0495C40.7702 43.4995 39.5402 43.642 38.4527 43.642V43.6345Z" fill="#A5503C"/>
<path d="M49.5978 9.66804C39.3078 1.53054 30.1878 10.0505 30.1878 10.0505C21.1653 11.7005 22.4478 25.0205 22.6653 26.4455C22.8828 27.863 23.1603 28.8455 23.1603 28.8455C23.3553 28.853 23.5353 28.8455 23.7078 28.808L24.4728 34.298C24.5253 34.493 24.8178 34.508 24.8853 34.298C24.9528 34.223 25.1628 31.013 25.3653 27.6605C27.0753 25.133 27.0003 19.2155 30.1878 16.568C31.7478 15.2705 33.9378 16.2905 33.9378 16.2905C33.9378 16.2905 35.5728 13.403 39.4653 15.083C42.9678 16.5905 47.2728 26.093 52.0203 28.3505C52.2078 31.4405 52.3953 34.2305 52.4553 34.3055C52.5228 34.5155 52.8153 34.5005 52.8678 34.3055L53.6328 28.823L55.8078 27.6905C55.8078 27.6905 56.7903 14.1605 49.5828 9.67555L49.5978 9.66804Z" fill="#441D39"/>
<path d="M67.3424 65.8507C64.6424 64.9432 60.1874 62.9107 56.0099 60.9082L44.3549 65.0407V76.1932H43.6049V65.3032L41.1899 66.1582V78.5407H73.5524C73.5524 78.5407 73.5524 67.9357 67.3424 65.8432V65.8507Z" fill="#4598C4"/>
<path d="M50.4299 56.5505C46.7399 55.283 41.1899 66.158 41.1899 66.158L43.6049 65.303V76.193H44.3549V65.0405L56.0099 60.908L56.0549 60.893C56.0549 60.893 54.1274 57.818 50.4374 56.5505H50.4299Z" fill="#2B7FA5"/>
<path d="M32.4075 65.3546L30.675 75.8921L29.9325 75.7721L31.6875 65.0996L19.8225 60.8921C15.6375 62.9021 11.1675 64.9421 8.46 65.8496C2.25 67.9421 2.25 78.5471 2.25 78.5471H34.5225L34.6875 66.1646L32.4075 65.3546V65.3546Z" fill="#4598C4"/>
<path d="M25.4478 56.5504C21.7653 57.8104 19.8378 60.8779 19.8303 60.8929L31.6953 65.1004L29.9403 75.7728L30.6828 75.8929L32.4153 65.3553L34.6953 66.1654C34.6953 66.1654 29.1378 55.2904 25.4553 56.5579L25.4478 56.5504Z" fill="#2B7FA5"/>
</g>
<defs>
<clipPath id="clip0_87_618">
<rect width="75" height="75" rx="37.5" fill="white"/>
</clipPath>
</defs>
</svg>
