<svg width="75" height="75" viewBox="0 0 75 75" fill="none" xmlns="http://www.w3.org/2000/svg">
<g clip-path="url(#clip0_87_619)">
<rect width="75" height="75" rx="37.5" fill="white"/>
<circle cx="37.5" cy="37.5" r="37.5" fill="#DEF4FF"/>
<path d="M67.3425 65.8506C61.1325 63.7581 45.615 55.7256 45.615 55.7256H30.1875C30.1875 55.7256 14.6775 63.7581 8.46 65.8506C2.25 67.9431 2.25 78.5481 2.25 78.5481H73.56C73.56 78.5481 73.56 67.9431 67.35 65.8506H67.3425Z" fill="#424777"/>
<path fill-rule="evenodd" clip-rule="evenodd" d="M30.0527 56.8947L31.0652 48.3896H44.6627L45.7127 56.4447L44.2721 56.4861L40.6872 58.9203L38.9622 75.9003L36.1122 59.1303L33.3711 56.7993L30.0527 56.8947Z" fill="#C1735C"/>
<path d="M30.4797 53.2945C30.4797 53.2945 41.0172 54.262 44.7297 49.642V44.332L31.3722 45.6145L30.4797 53.2945V53.2945Z" fill="#A5503C"/>
<path d="M30.3673 54.2402L25.2898 58.2077L32.1373 64.8902L36.1123 59.1302L30.3673 54.2402Z" fill="#515882"/>
<path d="M40.6875 58.9201L45.435 54.3076L50.0625 57.9676L43.935 64.6726L40.6875 58.9201Z" fill="#515882"/>
<path d="M34.7774 4.84518C33.7949 2.41518 29.1599 0.930176 29.1599 0.930176C30.3074 8.52768 34.6724 6.89268 34.6724 6.89268C34.7624 6.71268 34.8224 6.53268 34.8749 6.36018C38.2949 8.26517 41.1449 1.27518 41.1449 1.27518C36.3824 1.62018 35.0774 3.48018 34.7774 4.84518V4.84518Z" fill="#FF7C59"/>
<path fill-rule="evenodd" clip-rule="evenodd" d="M38.5351 50.5199C45.4232 50.5199 51.2539 44.7321 53.2137 36.7531C53.858 36.6259 54.1425 36.4868 54.1425 36.4868C55.7175 35.6468 56.565 33.7043 56.325 31.1768C56.1449 29.28 54.6046 28.9883 53.8472 28.9609C53.1017 18.9888 46.5308 11.1899 38.5351 11.1899C30.5399 11.1899 23.9694 18.9878 23.2232 28.9589C22.5671 28.9494 20.7609 29.113 20.5649 31.1768C20.3249 33.7043 21.1724 35.6468 22.7474 36.4868C22.7474 36.4868 23.0849 36.6518 23.8574 36.7868L23.8555 36.7489C25.8143 44.7301 31.6458 50.5199 38.5351 50.5199Z" fill="#C1735C"/>
<path d="M38.5349 10.0348C22.0349 9.8023 23.1524 29.0848 23.1524 29.0848L38.5349 30.2098L53.9174 29.0848C53.9174 29.0848 55.0349 9.8023 38.5349 10.0348V10.0348Z" fill="#C1735C"/>
<path d="M27.9898 26.9105C30.5248 26.453 32.7673 26.813 33.9073 27.0305C34.2523 27.098 34.5973 26.933 34.7023 26.648C34.8223 26.3255 34.5973 25.9955 34.2073 25.9205C32.9098 25.673 30.5773 25.298 28.1323 26.153C27.7573 26.288 27.0898 26.6555 27.2923 26.948C27.4048 27.053 27.6523 26.963 27.9898 26.903V26.9105Z" fill="#441D39"/>
<path d="M49.2377 26.9182C46.7027 26.4607 44.4602 26.8207 43.3202 27.0382C42.9752 27.1057 42.6302 26.9332 42.5252 26.6482C42.4052 26.3257 42.6302 25.9882 43.0202 25.9132C44.3177 25.6582 46.6502 25.2832 49.0952 26.1532C49.4702 26.2882 50.1377 26.6557 49.9352 26.9557C49.8227 27.0607 49.5752 26.9707 49.2377 26.9107V26.9182Z" fill="#441D39"/>
<path d="M45.8028 32.4293C46.304 32.4293 46.7103 31.7241 46.7103 30.8543C46.7103 29.9844 46.304 29.2793 45.8028 29.2793C45.3016 29.2793 44.8953 29.9844 44.8953 30.8543C44.8953 31.7241 45.3016 32.4293 45.8028 32.4293Z" fill="#441D39"/>
<path d="M32.19 32.107C32.6912 32.107 33.0975 31.4019 33.0975 30.532C33.0975 29.6622 32.6912 28.957 32.19 28.957C31.6888 28.957 31.2825 29.6622 31.2825 30.532C31.2825 31.4019 31.6888 32.107 32.19 32.107Z" fill="#441D39"/>
<path d="M39.5999 37.9347H38.1674C37.5299 37.9347 36.9674 37.6872 36.6674 37.2822C36.4499 36.9897 36.3899 36.6447 36.4949 36.3072C36.8249 35.2272 37.1024 34.2072 37.1024 34.1997C37.1549 33.9972 37.3574 33.8847 37.5599 33.9372C37.7624 33.9897 37.8824 34.1997 37.8224 34.3947C37.8224 34.3947 37.5449 35.4372 37.2074 36.5247C37.1774 36.6297 37.1924 36.7347 37.2674 36.8397C37.4249 37.0572 37.7774 37.1922 38.1674 37.1922H39.5999C39.8099 37.1922 39.9749 37.3572 39.9749 37.5672C39.9749 37.7772 39.8099 37.9422 39.5999 37.9422V37.9347Z" fill="#A5503C"/>
<path d="M36.3304 42.8245C35.6329 42.8245 35.1754 42.787 35.1229 42.7795C34.9129 42.7645 34.7629 42.577 34.7779 42.3745C34.7929 42.172 34.9729 42.0145 35.1829 42.0295C35.2279 42.0295 39.4579 42.3745 42.5929 40.8295C42.7804 40.7395 43.0054 40.8145 43.0954 41.002C43.1854 41.1895 43.1104 41.4145 42.9229 41.5045C40.6279 42.637 37.8754 42.817 36.3229 42.817L36.3304 42.8245Z" fill="#A5503C"/>
<path d="M46.5526 34.8973C47.9982 34.8973 49.1701 34.6286 49.1701 34.2973C49.1701 33.9659 47.9982 33.6973 46.5526 33.6973C45.107 33.6973 43.9351 33.9659 43.9351 34.2973C43.9351 34.6286 45.107 34.8973 46.5526 34.8973Z" fill="#AF5D4E"/>
<path d="M31.2823 34.8973C32.7279 34.8973 33.8998 34.6286 33.8998 34.2973C33.8998 33.9659 32.7279 33.6973 31.2823 33.6973C29.8367 33.6973 28.6648 33.9659 28.6648 34.2973C28.6648 34.6286 29.8367 34.8973 31.2823 34.8973Z" fill="#AF5D4E"/>
<path d="M48.5698 17.2576C48.5698 17.2576 53.1148 25.4551 53.9098 29.0851C53.9098 29.0851 56.3698 18.1576 50.5723 12.2476L48.5698 17.2501V17.2576Z" fill="#FF7C59"/>
<path d="M23.1522 29.0857L24.7872 22.8457H22.7922L23.1522 29.0857Z" fill="#FF7C59"/>
<path d="M48.0523 9.01523C48.0523 9.01523 48.0523 8.97773 48.0523 8.96273C48.0523 7.21523 46.6348 5.80523 44.8948 5.80523C44.5123 5.80523 44.1598 5.88023 43.8223 6.00773C42.8923 5.02523 41.4373 4.38773 39.7873 4.38773C38.2648 4.38773 36.8998 4.93523 35.9623 5.79773C34.9798 5.20523 33.7648 4.84523 32.4523 4.84523C31.8973 4.84523 31.3648 4.91273 30.8548 5.02523C30.1123 4.38023 29.1523 3.99023 28.0948 3.99023C26.4298 3.99023 24.9973 4.95773 24.3148 6.36023C23.9023 6.01523 23.3773 5.80523 22.7998 5.80523C21.4798 5.80523 20.4148 6.87773 20.4148 8.19023C20.4148 8.33273 20.4298 8.46773 20.4598 8.60273C17.8573 8.64023 15.7573 10.7627 15.7573 13.3727C15.7573 14.9552 16.5298 16.3577 17.7223 17.2277C17.2798 17.9477 17.0248 18.7952 17.0248 19.7102C17.0248 22.3502 19.1623 24.4877 21.8023 24.4877C24.4423 24.4877 26.5798 22.3502 26.5798 19.7102C26.5798 19.6577 26.5798 19.6052 26.5723 19.5527C27.2098 19.8677 27.9223 20.0477 28.6798 20.0477C31.2073 20.0477 33.2698 18.0827 33.4423 15.6077C34.3048 16.4852 35.5048 17.0252 36.8323 17.0252C38.8048 17.0252 40.4998 15.8252 41.2273 14.1152C41.6248 16.3577 43.5748 18.0602 45.9298 18.0602C48.5698 18.0602 50.7073 15.9227 50.7073 13.2827C50.7073 11.4152 49.6348 9.80273 48.0673 9.01523H48.0523Z" fill="#441D39"/>
</g>
<defs>
<clipPath id="clip0_87_619">
<rect width="75" height="75" rx="37.5" fill="white"/>
</clipPath>
</defs>
</svg>
