<svg width="76" height="76" viewBox="0 0 76 76" fill="none" xmlns="http://www.w3.org/2000/svg">
<g clip-path="url(#clip0_87_615)">
<rect x="0.562866" y="0.324585" width="75" height="75" rx="37.5" fill="white"/>
<circle cx="38.0629" cy="37.8246" r="37.5" fill="#DEF4FF"/>
<path d="M20.4529 29.5674C19.2679 41.7099 17.4079 46.1499 16.4029 47.7249C16.1479 48.1149 16.3954 48.6399 16.8529 48.6999L37.3954 51.3924L38.6404 9.52743C38.6404 9.52743 22.6354 7.10493 20.4529 29.5674Z" fill="#441D39"/>
<path d="M61.5903 47.7249C60.5778 46.1499 58.7178 41.7099 57.5403 29.5674C55.3578 7.10489 38.9028 9.51239 38.9028 9.51239L40.6053 51.3849L61.1478 48.6924C61.6128 48.6324 61.8528 48.1149 61.5978 47.7174L61.5903 47.7249Z" fill="#441D39"/>
<path d="M31.6281 48.7142L30.6156 57.2192L46.2756 56.7692L45.2256 48.7142H31.6281Z" fill="#FFC7A4"/>
<path d="M31.0426 53.6191C31.0426 53.6191 41.5801 54.5866 45.2926 49.9666V44.6566L31.9351 45.9391L31.0426 53.6191V53.6191Z" fill="#F2B594"/>
<path d="M56.8958 31.5016C56.7158 29.5966 55.1633 29.3116 54.4058 29.2891C53.6633 19.3141 46.6358 9.53406 38.6483 9.53406C30.6608 9.53406 24.5408 19.3141 23.7983 29.2891C23.1458 29.2816 21.3308 29.4391 21.1358 31.5091C20.8958 34.0366 21.7433 35.9791 23.3183 36.8191C23.3183 36.8191 23.6558 36.9841 24.4283 37.1191V37.0666C26.3783 45.0616 32.2133 50.8591 39.1058 50.8591C45.9983 50.8591 51.8258 45.0691 53.7833 37.0816C54.4283 36.9541 54.7208 36.8191 54.7208 36.8191C56.2958 35.9791 57.1433 34.0366 56.9033 31.5091L56.8958 31.5016Z" fill="#FFC7A4"/>
<path d="M28.5527 27.235C31.0877 26.7775 33.3302 27.1375 34.4702 27.355C34.8152 27.4225 35.1602 27.2575 35.2652 26.9725C35.3852 26.65 35.1602 26.32 34.7702 26.245C33.4727 25.9975 31.1402 25.6225 28.6952 26.4775C28.3202 26.6125 27.6527 26.98 27.8552 27.2725C27.9677 27.3775 28.2152 27.2875 28.5527 27.2275V27.235Z" fill="#441D39"/>
<path d="M49.7852 27.235C47.2502 26.7775 45.0077 27.1375 43.8677 27.355C43.5227 27.4225 43.1777 27.2575 43.0727 26.9725C42.9527 26.65 43.1777 26.32 43.5677 26.245C44.8652 25.9975 47.1977 25.6225 49.6427 26.4775C50.0177 26.6125 50.6852 26.98 50.4827 27.2725C50.3702 27.3775 50.1227 27.2875 49.7852 27.2275V27.235Z" fill="#441D39"/>
<path d="M46.3656 32.4316C46.8668 32.4316 47.2731 31.7265 47.2731 30.8566C47.2731 29.9868 46.8668 29.2816 46.3656 29.2816C45.8644 29.2816 45.4581 29.9868 45.4581 30.8566C45.4581 31.7265 45.8644 32.4316 46.3656 32.4316Z" fill="#441D39"/>
<path d="M32.7528 32.4316C33.254 32.4316 33.6603 31.7265 33.6603 30.8566C33.6603 29.9868 33.254 29.2816 32.7528 29.2816C32.2516 29.2816 31.8453 29.9868 31.8453 30.8566C31.8453 31.7265 32.2516 32.4316 32.7528 32.4316Z" fill="#441D39"/>
<path d="M40.1627 38.2592H38.7302C37.9727 38.2592 37.3577 38.0267 37.1177 37.6442C36.9827 37.4342 36.9677 37.1942 37.0727 36.9692C37.4027 36.2717 37.6727 35.5967 37.6727 35.5967C37.7477 35.4017 37.9727 35.3117 38.1602 35.3942C38.3552 35.4692 38.4452 35.6942 38.3627 35.8817C38.3627 35.8817 38.0852 36.5717 37.7477 37.2917C37.7852 37.3142 38.0927 37.5092 38.7302 37.5092H40.1627C40.3727 37.5092 40.5377 37.6742 40.5377 37.8842C40.5377 38.0942 40.3727 38.2592 40.1627 38.2592Z" fill="#EDA07E"/>
<path d="M38.7906 42.9771C37.0431 42.9771 35.7156 42.7371 35.6181 42.7146C35.4156 42.6771 35.2806 42.4821 35.3181 42.2796C35.3556 42.0771 35.5581 41.9421 35.7531 41.9796C35.7981 41.9796 39.9756 42.7521 43.2456 41.5296C43.4406 41.4546 43.6581 41.5521 43.7256 41.7471C43.8006 41.9421 43.7031 42.1596 43.5081 42.2271C41.9406 42.8121 40.2231 42.9771 38.7831 42.9771H38.7906Z" fill="#EDA07E"/>
<path d="M47.1154 35.2218C48.561 35.2218 49.7329 34.9532 49.7329 34.6218C49.7329 34.2905 48.561 34.0219 47.1154 34.0219C45.6698 34.0219 44.4979 34.2905 44.4979 34.6218C44.4979 34.9532 45.6698 35.2218 47.1154 35.2218Z" fill="#EAA281"/>
<path d="M31.8452 35.2218C33.2908 35.2218 34.4627 34.9532 34.4627 34.6218C34.4627 34.2905 33.2908 34.0219 31.8452 34.0219C30.3996 34.0219 29.2277 34.2905 29.2277 34.6218C29.2277 34.9532 30.3996 35.2218 31.8452 35.2218Z" fill="#EAA281"/>
<path d="M24.4054 24.4964L23.6554 24.4514C24.3904 11.9564 36.0379 10.1789 36.1579 10.1639L36.2629 10.9064C36.2629 10.9064 33.4279 11.3264 30.5779 13.2089C26.7754 15.7214 24.7054 19.5164 24.4054 24.4964V24.4964Z" fill="#30132B"/>
<path d="M38.903 9.51941V16.0219C38.903 16.0219 49.9655 14.3944 54.4805 29.2894C54.4805 29.2894 57.548 9.24941 38.903 9.52691V9.51941Z" fill="#441D39"/>
<path d="M38.6404 9.52647V16.029C38.6404 16.029 28.2379 14.6715 23.7229 29.5665C23.7229 29.5665 19.9954 9.25647 38.6404 9.52647V9.52647Z" fill="#441D39"/>
<path d="M67.9054 66.175C62.8279 64.465 51.5479 58.795 47.5879 56.77C47.5879 56.7475 47.5879 56.725 47.5729 56.7025L46.7029 53.905C46.5829 53.515 46.2229 53.245 45.8104 53.245H30.7729C30.3229 53.245 29.9404 53.56 29.8579 54.0025L28.7629 56.665C28.7329 56.8075 28.7404 56.9425 28.7704 57.07C24.3904 59.2975 13.8754 64.5475 9.02287 66.1825C2.81287 68.275 2.81287 78.88 2.81287 78.88H74.1229C74.1229 78.88 74.1229 68.275 67.9129 66.1825L67.9054 66.175Z" fill="#4598C4"/>
<path d="M23.9705 40.0444C23.753 40.0444 23.6555 40.0444 23.618 39.6394H23.603C23.603 39.6394 23.603 39.5494 23.603 39.4444C23.588 39.0994 23.588 38.5669 23.588 37.7194C23.588 36.8719 23.588 36.3394 23.603 35.9944C23.603 35.8894 23.603 35.8219 23.603 35.7994H23.618C23.663 35.3944 23.753 35.3944 23.9705 35.3944C24.188 35.3944 24.2855 35.3944 24.323 35.7994H24.338C24.338 35.7994 24.338 35.8894 24.338 35.9944C24.353 36.3394 24.353 36.8719 24.353 37.7194C24.353 38.5669 24.353 39.0994 24.338 39.4444C24.338 39.5494 24.338 39.6169 24.338 39.6394H24.323C24.278 40.0444 24.188 40.0444 23.9705 40.0444Z" fill="#FFA33A"/>
<path d="M54.7352 40.0444C54.5177 40.0444 54.4202 40.0444 54.3827 39.6394H54.3677C54.3677 39.6394 54.3677 39.5494 54.3677 39.4444C54.3527 39.0994 54.3527 38.5669 54.3527 37.7194C54.3527 36.8719 54.3527 36.3394 54.3677 35.9944C54.3677 35.8894 54.3677 35.8219 54.3677 35.7994H54.3827C54.4277 35.3944 54.5177 35.3944 54.7352 35.3944C54.9527 35.3944 55.0502 35.3944 55.0877 35.7994H55.1027C55.1027 35.7994 55.1027 35.8894 55.1027 35.9944C55.1177 36.3394 55.1177 36.8719 55.1177 37.7194C55.1177 38.5669 55.1177 39.0994 55.1027 39.4444C55.1027 39.5494 55.1027 39.6169 55.1027 39.6394H55.0877C55.0427 40.0444 54.9527 40.0444 54.7352 40.0444Z" fill="#FFA33A"/>
<path d="M31.7933 58.9227C31.7933 58.9227 31.7483 58.9227 31.7333 58.9227C31.5308 58.8852 31.3883 58.6977 31.4258 58.4877L31.9958 55.1577C32.0333 54.9552 32.2283 54.8202 32.4308 54.8502C32.6333 54.8877 32.7758 55.0752 32.7383 55.2852L32.1683 58.6152C32.1383 58.7952 31.9808 58.9302 31.8008 58.9302L31.7933 58.9227Z" fill="#2579AD"/>
<path d="M44.4981 58.9214C44.3181 58.9214 44.1606 58.7939 44.1306 58.6064L43.5606 55.2764C43.5231 55.0739 43.6656 54.8789 43.8681 54.8414C44.0706 54.8114 44.2656 54.9464 44.3031 55.1489L44.8731 58.4789C44.9106 58.6814 44.7681 58.8764 44.5656 58.9139C44.5431 58.9139 44.5206 58.9139 44.5056 58.9139L44.4981 58.9214Z" fill="#2579AD"/>
<path d="M38.4752 59.2377C38.2652 59.2377 38.1002 59.0727 38.1002 58.8627V55.4877C38.1002 55.2777 38.2652 55.1127 38.4752 55.1127C38.6852 55.1127 38.8502 55.2777 38.8502 55.4877V58.8627C38.8502 59.0727 38.6852 59.2377 38.4752 59.2377Z" fill="#2579AD"/>
</g>
<defs>
<clipPath id="clip0_87_615">
<rect x="0.562866" y="0.324585" width="75" height="75" rx="37.5" fill="white"/>
</clipPath>
</defs>
</svg>
