<svg width="76" height="76" viewBox="0 0 76 76" fill="none" xmlns="http://www.w3.org/2000/svg">
<g clip-path="url(#clip0_87_613)">
<rect x="0.562866" y="0.324585" width="75" height="75" rx="37.5" fill="white"/>
<circle cx="38.0629" cy="37.8246" r="37.5" fill="#DEF4FF"/>
<path d="M66.7353 52.4414C69.3153 46.1414 65.1228 45.4964 60.7578 42.2414C56.3928 38.9864 63.5028 37.5914 64.9578 34.2464C66.4128 30.9014 63.8253 28.5464 60.6003 26.7689C57.3678 24.9914 52.6728 18.0764 52.6728 18.0764L52.4628 17.9789C54.9003 22.8689 54.7953 28.4564 54.7578 29.2889C55.5378 29.3339 56.9928 29.6564 57.1728 31.5014C57.4128 34.0289 56.5653 35.9714 54.9903 36.8114C54.9903 36.8114 54.6903 36.9464 54.0528 37.0739C52.0953 45.0539 46.2678 50.8514 39.3753 50.8514C32.4828 50.8514 26.6478 45.0539 24.6978 37.0589V37.1114C23.9253 36.9764 23.5878 36.8114 23.5878 36.8114C22.0128 35.9714 21.1653 34.0289 21.4053 31.5014C21.5928 29.5064 23.2878 29.2889 23.9928 29.2814C23.9778 28.8164 23.9403 26.9339 24.3003 24.5339C23.1078 25.1189 19.5303 27.0539 19.5978 29.2814C19.6878 31.9589 20.4528 35.6339 17.0103 36.6314C13.5678 37.6289 13.4478 44.0414 14.8953 47.2964C16.3428 50.5514 17.3178 52.5989 12.7728 54.5864C8.22782 56.5739 13.2828 60.3539 12.7953 67.6139C12.3078 74.8739 18.9303 71.6564 32.1153 69.2339C45.3003 66.8114 54.7728 70.0439 61.8828 69.2339C68.9853 68.4239 68.1828 66.1739 65.5953 62.8289C63.0078 59.4839 64.1403 58.7414 66.7278 52.4414H66.7353Z" fill="#441D39"/>
<path d="M41.573 12.8869L52.4705 17.9794C50.423 13.8769 46.583 10.2619 39.383 10.3594C28.298 10.2019 25.1705 18.8494 24.308 24.5344C24.548 24.4144 24.698 24.3469 24.698 24.3469L41.573 12.8794V12.8869Z" fill="#C1735C"/>
<path d="M68.1903 66.1752C61.9803 64.0827 46.4628 56.0502 46.4628 56.0502H31.0353C31.0353 56.0502 15.5253 64.0827 9.30778 66.1752C3.09778 68.2677 3.09778 78.8727 3.09778 78.8727H74.4078C74.4078 78.8727 74.4078 68.2677 68.1978 66.1752H68.1903Z" fill="#4598C4"/>
<path d="M45.5105 48.7142H31.913L30.9005 57.2192L38.8955 74.3567L46.5605 56.7692L45.5105 48.7142Z" fill="#C1735C"/>
<path d="M31.9351 48.3846L31.3276 53.6196C31.3276 53.6196 41.8651 54.5871 45.5776 49.9671V49.1796C43.6801 50.2521 41.5876 50.8521 39.3751 50.8521C36.6751 50.8521 34.1401 49.9521 31.9351 48.3846Z" fill="#A5503C"/>
<path d="M57.1802 31.5021C57.0077 29.6571 55.5452 29.3346 54.7652 29.2896C54.7952 28.4571 54.9077 22.8696 52.4702 17.9796L41.5727 12.8871L24.6977 24.3546C24.6977 24.3546 24.5477 24.4221 24.3077 24.5421C23.9402 26.9421 23.9777 28.8246 24.0002 29.2896C23.2952 29.2896 21.6002 29.5146 21.4127 31.5096C21.1727 34.0371 22.0202 35.9796 23.5952 36.8196C23.5952 36.8196 23.9327 36.9846 24.7052 37.1196V37.0671C25.8902 41.9271 28.5152 45.9696 31.9427 48.3921C34.1477 49.9596 36.6827 50.8596 39.3827 50.8596C41.5877 50.8596 43.6877 50.2596 45.5852 49.1871C49.6127 46.9146 52.7327 42.5046 54.0602 37.0821C54.7052 36.9546 54.9977 36.8196 54.9977 36.8196C56.5727 35.9796 57.4202 34.0371 57.1802 31.5096V31.5021Z" fill="#C1735C"/>
<path d="M28.7927 26.905C31.3652 26.725 33.5552 27.325 34.6652 27.6625C35.0027 27.7675 35.3552 27.6325 35.4977 27.37C35.6477 27.0625 35.4602 26.71 35.0852 26.59C33.8252 26.2 31.5452 25.5775 29.0177 26.17C28.6277 26.26 27.9302 26.5525 28.0952 26.875C28.1927 26.9875 28.4552 26.935 28.7927 26.9125V26.905Z" fill="#441D39"/>
<path d="M50.115 27.0319C47.55 26.7469 45.345 27.2644 44.22 27.5644C43.8825 27.6544 43.53 27.5119 43.4025 27.2344C43.26 26.9194 43.4625 26.5669 43.845 26.4694C45.12 26.1244 47.4225 25.5919 49.9275 26.2819C50.31 26.3869 51 26.7094 50.82 27.0244C50.715 27.1369 50.46 27.0694 50.1225 27.0244L50.115 27.0319Z" fill="#441D39"/>
<path d="M46.6505 32.7539C47.1517 32.7539 47.558 32.0487 47.558 31.1789C47.558 30.309 47.1517 29.6039 46.6505 29.6039C46.1493 29.6039 45.743 30.309 45.743 31.1789C45.743 32.0487 46.1493 32.7539 46.6505 32.7539Z" fill="#441D39"/>
<path d="M33.0377 32.4316C33.5389 32.4316 33.9452 31.7265 33.9452 30.8566C33.9452 29.9868 33.5389 29.2816 33.0377 29.2816C32.5365 29.2816 32.1302 29.9868 32.1302 30.8566C32.1302 31.7265 32.5365 32.4316 33.0377 32.4316Z" fill="#441D39"/>
<path d="M40.4477 38.2594H39.0152C38.3777 38.2594 37.8152 38.0119 37.5152 37.5994C37.2977 37.3069 37.2377 36.9619 37.3427 36.6244C37.6727 35.5519 37.9502 34.5244 37.9502 34.5169C38.0027 34.3144 38.2052 34.2019 38.4077 34.2544C38.6102 34.3069 38.7302 34.5169 38.6702 34.7119C38.6702 34.7119 38.3927 35.7544 38.0552 36.8419C38.0252 36.9544 38.0402 37.0519 38.1152 37.1569C38.2727 37.3744 38.6252 37.5094 39.0152 37.5094H40.4477C40.6577 37.5094 40.8227 37.6744 40.8227 37.8844C40.8227 38.0944 40.6577 38.2594 40.4477 38.2594V38.2594Z" fill="#A5503C"/>
<path d="M39.0756 42.9771C37.3281 42.9771 36.0006 42.7371 35.9031 42.7146C35.7006 42.6771 35.5656 42.4821 35.6031 42.2796C35.6406 42.0771 35.8356 41.9421 36.0381 41.9796C36.0756 41.9796 40.2606 42.7521 43.5306 41.5296C43.7256 41.4546 43.9431 41.5521 44.0106 41.7471C44.0856 41.9421 43.9806 42.1596 43.7931 42.2271C42.2256 42.8121 40.5081 42.9771 39.0681 42.9771H39.0756Z" fill="#A5503C"/>
<path d="M47.4003 35.2218C48.8459 35.2218 50.0178 34.9532 50.0178 34.6218C50.0178 34.2905 48.8459 34.0219 47.4003 34.0219C45.9547 34.0219 44.7828 34.2905 44.7828 34.6218C44.7828 34.9532 45.9547 35.2218 47.4003 35.2218Z" fill="#AF5D4E"/>
<path d="M32.1301 35.2218C33.5757 35.2218 34.7476 34.9532 34.7476 34.6218C34.7476 34.2905 33.5757 34.0219 32.1301 34.0219C30.6845 34.0219 29.5126 34.2905 29.5126 34.6218C29.5126 34.9532 30.6845 35.2218 32.1301 35.2218Z" fill="#AF5D4E"/>
<path d="M23.4525 25.0294L23.4975 25.3819L21.3675 27.5944L19.7325 32.4319C19.7325 32.4319 21.645 38.6344 24.3675 42.4819C27.0825 46.3369 25.845 40.5169 24.6975 37.0519C23.55 33.5869 25.695 33.5419 26.1975 31.1794C26.5125 29.6869 25.9575 28.3144 25.5075 27.5119C25.11 26.1394 25.4625 24.4894 27.345 23.9794C31.755 22.7719 28.8675 15.4594 28.8675 15.4594C26.3325 17.0869 24.1275 23.6569 23.46 25.0219L23.4525 25.0294Z" fill="#441D39"/>
<path d="M57.2175 27.5943L55.6575 27.7143C55.02 24.4218 53.6175 17.9268 52.35 17.2518C50.64 16.3443 48.6975 17.8218 48.6975 17.8218C48.6975 17.8218 49.6725 23.1393 51.81 24.3393C53.0775 25.0518 53.07 26.6568 53.1 27.8418C52.365 31.6743 50.46 35.9343 54.7575 39.7818C59.445 43.9743 60.4575 32.7543 60.4575 32.7543L57.2175 27.5943V27.5943Z" fill="#441D39"/>
<path d="M54.878 11.5603C52.4555 7.53277 43.1405 5.53777 35.3855 7.12027L34.868 5.37277C34.7705 5.05027 34.433 4.86277 34.103 4.96027C33.7805 5.05777 33.593 5.39527 33.6905 5.72527L34.1855 7.41277C28.193 8.98027 21.953 13.4428 19.2155 19.0528C16.3955 24.8278 23.5055 24.9553 23.5055 24.9553C29.558 15.8278 52.673 18.0778 52.673 18.0778C54.0155 17.7928 57.368 15.7153 54.8705 11.5678L54.878 11.5603Z" fill="#FF7C59"/>
<path d="M27.4654 62.3945C27.3229 62.3945 27.1879 62.3195 27.1279 62.1845C27.0379 61.997 27.1204 61.772 27.3004 61.682L30.1279 60.3245C30.3154 60.2345 30.5404 60.317 30.6304 60.5045C30.7204 60.692 30.6379 60.917 30.4579 61.007L27.6304 62.3645C27.5779 62.387 27.5254 62.402 27.4654 62.402V62.3945Z" fill="#2A5E70"/>
<path d="M28.7552 66.8566C28.6127 66.8566 28.4777 66.7816 28.4177 66.6466C28.3277 66.4591 28.4102 66.2341 28.5902 66.1441L31.4177 64.7866C31.6052 64.6966 31.8302 64.7791 31.9202 64.9591C32.0102 65.1391 31.9277 65.3716 31.7477 65.4616L28.9202 66.8191C28.8677 66.8416 28.8152 66.8566 28.7552 66.8566Z" fill="#2A5E70"/>
<path d="M30.398 72.13C30.2555 72.13 30.1205 72.055 30.0605 71.92C29.9705 71.7325 30.053 71.5075 30.233 71.4175L33.0605 70.06C33.248 69.97 33.473 70.0525 33.563 70.2325C33.653 70.42 33.5705 70.645 33.3905 70.735L30.563 72.0925C30.5105 72.115 30.458 72.13 30.398 72.13Z" fill="#2A5E70"/>
<path d="M49.5305 62.3947C49.478 62.3947 49.418 62.3797 49.3655 62.3572L46.538 60.9997C46.3505 60.9097 46.2755 60.6847 46.3655 60.4972C46.4555 60.3097 46.6805 60.2272 46.868 60.3172L49.6955 61.6747C49.883 61.7647 49.958 61.9897 49.868 62.1772C49.8005 62.3122 49.673 62.3872 49.5305 62.3872V62.3947Z" fill="#2A5E70"/>
<path d="M48.2407 66.8564C48.1882 66.8564 48.1282 66.8414 48.0757 66.8189L45.2482 65.4614C45.0607 65.3714 44.9857 65.1464 45.0757 64.9589C45.1657 64.7714 45.3907 64.6964 45.5782 64.7864L48.4057 66.1439C48.5932 66.2339 48.6682 66.4589 48.5782 66.6464C48.5107 66.7814 48.3832 66.8564 48.2407 66.8564Z" fill="#2A5E70"/>
<path d="M46.5979 72.1298C46.5454 72.1298 46.4854 72.1148 46.4329 72.0923L43.6054 70.7348C43.4179 70.6448 43.3429 70.4198 43.4329 70.2323C43.5229 70.0448 43.7479 69.9698 43.9354 70.0598L46.7629 71.4173C46.9504 71.5073 47.0254 71.7323 46.9354 71.9198C46.8679 72.0548 46.7404 72.1298 46.5979 72.1298Z" fill="#2A5E70"/>
</g>
<defs>
<clipPath id="clip0_87_613">
<rect x="0.562866" y="0.324585" width="75" height="75" rx="37.5" fill="white"/>
</clipPath>
</defs>
</svg>
