<svg width="76" height="76" viewBox="0 0 76 76" fill="none" xmlns="http://www.w3.org/2000/svg">
<g clip-path="url(#clip0_87_614)">
<rect x="0.562866" y="0.324585" width="75" height="75" rx="37.5" fill="white"/>
<circle cx="38.0629" cy="37.8246" r="37.5" fill="#DEF4FF"/>
<path d="M54.0602 29.2964C54.0602 29.2964 56.7152 28.9739 56.9552 31.5014C57.1952 34.0289 56.3477 35.9714 54.7727 36.8114C54.7727 36.8114 54.4352 36.9764 53.6627 37.1114L54.0602 29.3039V29.2964Z" fill="#FFB69F"/>
<path d="M24.0227 29.2964C24.0227 29.2964 21.3677 28.9739 21.1277 31.5014C20.8877 34.0289 21.7352 35.9714 23.3102 36.8114C23.3102 36.8114 23.6477 36.9764 24.4202 37.1114L24.0227 29.3039V29.2964Z" fill="#FFB69F"/>
<path d="M2.81287 78.8727C2.81287 78.8727 2.81287 68.2677 9.02287 66.1752C15.2329 64.0827 29.2654 56.0502 29.2654 56.0502H38.7604V78.8727H2.81287V78.8727Z" fill="#F49037"/>
<path d="M74.1224 78.8727C74.1224 78.8727 74.1224 68.2677 67.9124 66.1752C61.7024 64.0827 47.8199 56.0502 47.8199 56.0502H38.1749V78.8727H74.1224V78.8727Z" fill="#F49037"/>
<path d="M31.6279 48.7142L30.7504 56.0492H46.1854L45.2254 48.7142H31.6279Z" fill="#FFB69F"/>
<path d="M38.4679 60.4378C42.7301 60.4378 46.1854 58.9368 46.1854 57.0853C46.1854 55.2338 42.7301 53.7328 38.4679 53.7328C34.2056 53.7328 30.7504 55.2338 30.7504 57.0853C30.7504 58.9368 34.2056 60.4378 38.4679 60.4378Z" fill="#FFB69F"/>
<path d="M31.0426 53.6191C31.0426 53.6191 41.5801 54.5866 45.2926 49.9666V44.6566L31.9351 45.9391L31.0426 53.6191V53.6191Z" fill="#FF9988"/>
<path d="M39.098 50.8445C47.5935 50.8445 54.4805 42.0402 54.4805 31.1795C54.4805 20.3188 47.5935 11.5145 39.098 11.5145C30.6024 11.5145 23.7155 20.3188 23.7155 31.1795C23.7155 42.0402 30.6024 50.8445 39.098 50.8445Z" fill="#FFB69F"/>
<path d="M52.5304 15.4752C52.5304 15.4752 52.5454 15.4377 52.5304 15.4152C52.0204 14.1927 51.3979 8.05017 41.3929 7.12017C38.8279 6.88017 35.1604 7.30767 32.8354 8.41767C29.6479 9.93267 26.0854 10.8027 22.9354 10.7952C22.8004 10.7952 22.7479 10.9752 22.8679 11.0427L25.3279 13.0002C25.4254 13.0527 25.4179 13.1952 25.3129 13.2402L22.2229 14.1777C22.1104 14.2227 22.1104 14.3877 22.2229 14.4252C22.7254 14.5902 24.0004 15.1527 25.1554 15.5502C23.2654 18.8952 23.7004 23.7027 23.7004 29.4777C23.7004 29.4777 23.6404 35.4627 25.6579 42.3252C27.8629 49.8252 32.7004 53.0427 39.5179 53.0652C46.7779 53.0952 50.5654 46.8702 51.5779 44.6577C53.1229 41.2677 54.4504 34.9677 54.4579 31.1802C54.4579 31.1802 57.2479 21.6102 52.5154 15.4752H52.5304ZM46.3654 43.2627C44.8654 44.0277 45.6229 40.0452 42.6379 39.8802C41.6404 39.8202 38.2504 39.5877 35.4004 39.8277C33.2329 40.0152 32.7079 41.9652 32.6104 42.9552C32.5654 43.3827 32.4154 43.5777 32.0104 43.4277C31.1104 43.0977 29.1979 42.0327 28.2979 41.0427C27.3679 40.0227 25.6879 37.2702 25.5304 31.4577L25.6954 23.1552C25.6954 23.1552 29.0329 20.3577 29.6104 18.3702C29.6104 18.3702 44.5204 20.7552 48.8404 18.3702C48.8404 18.3702 50.6479 21.8277 52.6204 22.8702C53.2279 23.1852 53.1229 27.1302 53.0704 29.8527C53.0179 30.2202 52.9729 30.6402 52.9504 31.1352C52.5529 38.9127 47.8504 42.5052 46.3579 43.2702L46.3654 43.2627Z" fill="#B54D4D"/>
<path d="M46.3656 32.7539C46.8668 32.7539 47.2731 32.0487 47.2731 31.1789C47.2731 30.309 46.8668 29.6039 46.3656 29.6039C45.8644 29.6039 45.4581 30.309 45.4581 31.1789C45.4581 32.0487 45.8644 32.7539 46.3656 32.7539Z" fill="#441D39"/>
<path d="M32.7528 32.4316C33.254 32.4316 33.6603 31.7265 33.6603 30.8566C33.6603 29.9868 33.254 29.2816 32.7528 29.2816C32.2516 29.2816 31.8453 29.9868 31.8453 30.8566C31.8453 31.7265 32.2516 32.4316 32.7528 32.4316Z" fill="#441D39"/>
<path d="M40.1555 38.2596H38.723C38.0855 38.2596 37.523 38.0121 37.223 37.5996C37.0055 37.3071 36.9455 36.9621 37.0505 36.6246C37.373 35.5896 37.793 31.7271 37.793 31.6896C37.8155 31.4796 37.9955 31.3371 38.2055 31.3596C38.408 31.3821 38.558 31.5696 38.5355 31.7721C38.5205 31.9371 38.1005 35.7396 37.763 36.8496C37.733 36.9621 37.748 37.0596 37.823 37.1646C37.9805 37.3746 38.333 37.5171 38.723 37.5171H40.1555C40.3655 37.5171 40.5305 37.6821 40.5305 37.8921C40.5305 38.1021 40.3655 38.2671 40.1555 38.2671V38.2596Z" fill="#FF9988"/>
<path d="M47.1601 35.2218C48.6057 35.2218 49.7776 34.9532 49.7776 34.6218C49.7776 34.2905 48.6057 34.0219 47.1601 34.0219C45.7145 34.0219 44.5426 34.2905 44.5426 34.6218C44.5426 34.9532 45.7145 35.2218 47.1601 35.2218Z" fill="#FF9988"/>
<path d="M31.8825 35.2218C33.3281 35.2218 34.5 34.9532 34.5 34.6218C34.5 34.2905 33.3281 34.0219 31.8825 34.0219C30.4369 34.0219 29.265 34.2905 29.265 34.6218C29.265 34.9532 30.4369 35.2218 31.8825 35.2218Z" fill="#FF9988"/>
<path d="M49.545 27.5189C47.0475 26.7839 45.135 27.2489 43.9725 27.3989C43.4775 27.4589 43.3725 26.8514 43.3725 26.8514C43.275 26.4389 43.83 26.1539 44.22 26.0789C45.5325 25.8389 47.2125 25.7189 49.7025 26.5814C50.1825 26.7464 50.2125 27.1514 50.2125 27.1514C50.16 27.6014 49.875 27.6089 49.545 27.5114V27.5189Z" fill="#B54D4D"/>
<path d="M29.4376 27.565C31.9201 26.785 33.8401 27.22 35.0026 27.3475C35.4976 27.4 35.5951 26.7925 35.5951 26.7925C35.6851 26.38 35.1226 26.1025 34.7326 26.035C33.4126 25.8175 31.7326 25.72 29.2651 26.6275C28.7851 26.8 28.7626 27.205 28.7626 27.205C28.8226 27.655 29.1076 27.655 29.4301 27.5575L29.4376 27.565Z" fill="#B54D4D"/>
<path d="M39.0154 44.3502C37.2454 44.3502 35.8354 43.9752 35.7454 43.9527C35.5429 43.9002 35.4304 43.6902 35.4829 43.4952C35.5354 43.3002 35.7454 43.1802 35.9404 43.2327C35.9779 43.2402 39.4279 44.1552 42.2104 43.0677C42.4054 42.9927 42.6229 43.0902 42.6979 43.2777C42.7729 43.4727 42.6754 43.6902 42.4879 43.7652C41.3404 44.2152 40.1104 44.3577 39.0229 44.3577L39.0154 44.3502Z" fill="#9B3D3D"/>
<path d="M31.0804 53.6566L37.0504 57.9166L34.1629 64.8316L26.4379 57.6391L31.0804 53.6566Z" fill="#FFA242"/>
<path d="M37.0504 57.9166L37.4104 60.4741L36.0529 60.3016L37.0504 57.9166Z" fill="#F49037"/>
<path d="M40.4555 57.7819L39.9305 60.4744L41.4005 60.2269L40.4555 57.7819Z" fill="#F49037"/>
<path d="M40.4556 57.7819L45.9231 53.7694L51.0456 57.8794L43.4256 65.4919L40.4556 57.7819Z" fill="#FFA242"/>
<path d="M39.9228 61.4569H37.4103V78.8644H39.9228V61.4569Z" fill="white"/>
<path d="M37.3577 60.1153L37.4102 61.6453C37.4102 61.6453 38.5802 62.1553 39.9227 61.6453L39.9602 60.2578L37.3502 60.1078L37.3577 60.1153Z" fill="#FFB69F"/>
<path d="M39.9228 65.1322H37.4103V65.8822H39.9228V65.1322Z" fill="#D6D6D6"/>
<path d="M39.9228 68.5145H37.4103V69.2645H39.9228V68.5145Z" fill="#D6D6D6"/>
<path d="M39.9228 71.8969H37.4103V72.6469H39.9228V71.8969Z" fill="#D6D6D6"/>
<path d="M39.9228 75.2792H37.4103V76.0292H39.9228V75.2792Z" fill="#D6D6D6"/>
<path d="M42.0605 69.2427C42.425 69.2427 42.7205 68.9472 42.7205 68.5827C42.7205 68.2182 42.425 67.9227 42.0605 67.9227C41.696 67.9227 41.4005 68.2182 41.4005 68.5827C41.4005 68.9472 41.696 69.2427 42.0605 69.2427Z" fill="#FFA242"/>
<path d="M42.0605 76.6065C42.425 76.6065 42.7205 76.311 42.7205 75.9465C42.7205 75.582 42.425 75.2865 42.0605 75.2865C41.696 75.2865 41.4005 75.582 41.4005 75.9465C41.4005 76.311 41.696 76.6065 42.0605 76.6065Z" fill="#FFA242"/>
</g>
<defs>
<clipPath id="clip0_87_614">
<rect x="0.562866" y="0.324585" width="75" height="75" rx="37.5" fill="white"/>
</clipPath>
</defs>
</svg>
