<svg width="75" height="75" viewBox="0 0 75 75" fill="none" xmlns="http://www.w3.org/2000/svg">
<g clip-path="url(#clip0_87_620)">
<rect width="75" height="75" rx="37.5" fill="white"/>
<circle cx="37.5" cy="37.5" r="37.5" fill="#DEF4FF"/>
<path d="M37.5973 9.43438C38.0698 9.54688 38.5423 9.59938 39.0223 9.55438C41.3923 9.35188 49.4548 9.26188 52.9348 16.9419C57.0298 26.0019 59.2573 28.4544 56.3998 38.9844C53.5423 49.5144 55.8223 49.1169 57.2998 54.4794L57.3448 54.6369C58.1398 57.5244 55.7998 60.3144 52.8073 60.0669L47.0848 59.5794C46.6723 59.5419 46.2523 59.5719 45.8473 59.6544C42.5923 60.3294 27.0448 63.4119 21.0823 61.8519C19.0423 61.3194 17.2948 60.6744 15.8398 60.0294C13.3498 58.9269 12.5698 55.8219 14.1148 53.5794C14.7673 52.6419 15.2773 51.6144 15.3823 50.6319C15.6973 47.6019 13.5898 44.8719 14.4223 39.7344C15.8098 31.1319 18.4423 31.9269 18.9073 26.5569C19.1773 23.4819 23.8048 6.14188 37.5898 9.43438H37.5973Z" fill="#EB3F3A"/>
<path d="M37.5973 9.43438C38.0698 9.54688 38.5423 9.59938 39.0223 9.55438C41.3923 9.35188 49.4548 9.26188 52.9348 16.9419C57.0298 26.0019 59.2573 28.4544 56.3998 38.9844C53.5423 49.5144 55.8223 49.1169 57.2998 54.4794L57.3448 54.6369C58.1398 57.5244 55.7998 60.3144 52.8073 60.0669L47.0848 59.5794C46.6723 59.5419 46.2523 59.5719 45.8473 59.6544C42.5923 60.3294 27.0448 63.4119 21.0823 61.8519C19.0423 61.3194 17.2948 60.6744 15.8398 60.0294C13.3498 58.9269 12.5698 55.8219 14.1148 53.5794C14.7673 52.6419 15.2773 51.6144 15.3823 50.6319C15.6973 47.6019 13.5898 44.8719 14.4223 39.7344C15.8098 31.1319 18.4423 31.9269 18.9073 26.5569C19.1773 23.4819 23.8048 6.14188 37.5898 9.43438H37.5973Z" fill="#EB3F3A"/>
<path d="M67.3425 65.8497C61.1325 63.7572 45.615 55.7247 45.615 55.7247L44.655 48.3896H31.065L30.1875 55.7247C30.1875 55.7247 14.6775 63.7572 8.46 65.8497C2.2425 67.9422 2.25 78.5471 2.25 78.5471H73.56C73.56 78.5471 73.56 67.9422 67.35 65.8497H67.3425Z" fill="#FFB69F"/>
<path d="M37.905 58.0432C42.1673 58.0432 45.6225 57.0056 45.6225 55.7257C45.6225 54.4458 42.1673 53.4082 37.905 53.4082C33.6427 53.4082 30.1875 54.4458 30.1875 55.7257C30.1875 57.0056 33.6427 58.0432 37.905 58.0432Z" fill="#FFB69F"/>
<path d="M30.4797 53.2945C30.4797 53.2945 41.0172 54.262 44.7297 49.642V44.332L31.3722 45.6145L30.4797 53.2945V53.2945Z" fill="#FF9988"/>
<path d="M38.5351 50.5199C47.0306 50.5199 53.9176 41.7156 53.9176 30.8549C53.9176 19.9943 47.0306 11.1899 38.5351 11.1899C30.0396 11.1899 23.1526 19.9943 23.1526 30.8549C23.1526 41.7156 30.0396 50.5199 38.5351 50.5199Z" fill="#FFB69F"/>
<path d="M53.43 28.9718C53.43 28.9718 56.085 28.6493 56.325 31.1768C56.565 33.7043 55.7175 35.6468 54.1425 36.4868C54.1425 36.4868 53.805 36.6518 53.0325 36.7868L53.43 28.9793V28.9718Z" fill="#FFB69F"/>
<path d="M23.4599 28.9718C23.4599 28.9718 20.8049 28.6493 20.5649 31.1768C20.3249 33.7043 21.1724 35.6468 22.7474 36.4868C22.7474 36.4868 23.0849 36.6518 23.8574 36.7868L23.4599 28.9793V28.9718Z" fill="#FFB69F"/>
<path d="M23.1524 29.1526C23.1524 29.1526 22.0349 11.0476 38.5349 11.2651V30.2101L23.1524 29.1526V29.1526Z" fill="#FFB69F"/>
<path d="M53.9098 29.1526C53.9098 29.1526 55.0273 11.0476 38.5273 11.2651V30.2101L53.9098 29.1526V29.1526Z" fill="#FFB69F"/>
<path d="M27.9898 26.9105C30.5248 26.453 32.7673 26.813 33.9073 27.0305C34.2523 27.098 34.5973 26.933 34.7023 26.648C34.8223 26.3255 34.5973 25.9955 34.2073 25.9205C32.9098 25.673 30.5773 25.298 28.1323 26.153C27.7573 26.288 27.0898 26.6555 27.2923 26.948C27.4048 27.053 27.6523 26.963 27.9898 26.903V26.9105Z" fill="#EB3F3A"/>
<path d="M49.2377 26.9182C46.7027 26.4607 44.4602 26.8207 43.3202 27.0382C42.9752 27.1057 42.6302 26.9332 42.5252 26.6482C42.4052 26.3257 42.6302 25.9882 43.0202 25.9132C44.3177 25.6582 46.6502 25.2832 49.0952 26.1532C49.4702 26.2882 50.1377 26.6557 49.9352 26.9557C49.8227 27.0607 49.5752 26.9707 49.2377 26.9107V26.9182Z" fill="#EB3F3A"/>
<path d="M45.8028 32.4293C46.304 32.4293 46.7103 31.7241 46.7103 30.8543C46.7103 29.9844 46.304 29.2793 45.8028 29.2793C45.3016 29.2793 44.8953 29.9844 44.8953 30.8543C44.8953 31.7241 45.3016 32.4293 45.8028 32.4293Z" fill="#441D39"/>
<path d="M32.19 32.107C32.6912 32.107 33.0975 31.4019 33.0975 30.532C33.0975 29.6622 32.6912 28.957 32.19 28.957C31.6888 28.957 31.2825 29.6622 31.2825 30.532C31.2825 31.4019 31.6888 32.107 32.19 32.107Z" fill="#441D39"/>
<path d="M39.5926 37.9348H38.1601C37.5226 37.9348 36.9601 37.6873 36.6601 37.2748C36.4426 36.9823 36.3826 36.6373 36.4876 36.2998C36.8176 35.2198 37.0951 34.1923 37.0951 34.1923C37.1476 33.9898 37.3576 33.8773 37.5526 33.9298C37.7551 33.9823 37.8751 34.1923 37.8151 34.3873C37.8151 34.3873 37.5376 35.4298 37.2001 36.5173C37.1701 36.6298 37.1851 36.7273 37.2601 36.8323C37.4176 37.0423 37.7701 37.1848 38.1601 37.1848H39.5926C39.8026 37.1848 39.9676 37.3498 39.9676 37.5598C39.9676 37.7698 39.8026 37.9348 39.5926 37.9348V37.9348Z" fill="#FF9988"/>
<path d="M36.3372 42.8171C35.6397 42.8171 35.1822 42.7796 35.1297 42.7721C34.9272 42.7571 34.7697 42.5696 34.7922 42.3671C34.8072 42.1571 34.9947 42.0146 35.1972 42.0221C35.2422 42.0221 39.4722 42.3671 42.6072 40.8221C42.7947 40.7321 43.0197 40.8071 43.1097 40.9946C43.1997 41.1821 43.1247 41.4071 42.9372 41.4971C40.6422 42.6296 37.8897 42.8096 36.3447 42.8096L36.3372 42.8171Z" fill="#FF9988"/>
<path d="M46.5526 34.8973C47.9982 34.8973 49.1701 34.6286 49.1701 34.2973C49.1701 33.9659 47.9982 33.6973 46.5526 33.6973C45.107 33.6973 43.9351 33.9659 43.9351 34.2973C43.9351 34.6286 45.107 34.8973 46.5526 34.8973Z" fill="#FF9988"/>
<path d="M31.2823 34.8973C32.7279 34.8973 33.8998 34.6286 33.8998 34.2973C33.8998 33.9659 32.7279 33.6973 31.2823 33.6973C29.8367 33.6973 28.6648 33.9659 28.6648 34.2973C28.6648 34.6286 29.8367 34.8973 31.2823 34.8973Z" fill="#FF9988"/>
<path d="M45.6221 55.7257C45.6221 55.7257 45.4046 53.2057 45.2696 53.0482C41.8871 54.1207 35.5046 54.0007 30.5321 52.8457C30.5321 52.8457 30.1046 54.5257 23.8571 58.9282L14.6471 63.3157L13.7996 78.5482H61.1546L59.5796 62.6557L45.6296 55.7257H45.6221Z" fill="#1C2642"/>
<path d="M43.6575 10.6131C43.635 10.5756 43.62 10.5306 43.5975 10.5006C43.11 9.69059 35.6025 9.36059 34.98 9.55559C34.4775 9.71309 28.005 13.4406 25.545 14.8656C24.9375 15.2181 24.4725 15.7656 24.2325 16.4256L19.2375 29.9706C19.1175 30.2931 19.0575 30.6381 19.05 30.9906L18.855 58.3056C18.8475 59.8506 18.015 60.8706 19.5525 61.0281L26.3175 61.8006C27.795 61.9506 29.1525 61.0056 29.5275 59.5731L30.0525 56.5956C30.2325 55.9056 30.0225 55.3656 30.105 54.5256C30.39 51.7206 25.815 45.2481 26.4675 43.2831C27.2775 40.8381 28.3875 38.2206 28.5825 34.9056C28.7775 31.5906 26.6325 25.7406 29.655 18.6306C32.085 12.9156 37.725 14.0556 39.84 14.7231C39.9975 14.7756 40.1625 14.8056 40.3275 14.8281C40.3275 14.8281 52.4775 18.5931 52.7925 32.1081C52.7925 32.1081 53.2875 32.8731 53.6025 31.9731C55.77 25.7256 52.9575 11.9556 43.65 10.6206L43.6575 10.6131Z" fill="#EB3F3A"/>
<path d="M53.8948 35.6548C54.1764 35.6548 54.4048 35.4264 54.4048 35.1448C54.4048 34.8631 54.1764 34.6348 53.8948 34.6348C53.6131 34.6348 53.3848 34.8631 53.3848 35.1448C53.3848 35.4264 53.6131 35.6548 53.8948 35.6548Z" fill="white"/>
</g>
<defs>
<clipPath id="clip0_87_620">
<rect width="75" height="75" rx="37.5" fill="white"/>
</clipPath>
</defs>
</svg>
